# xmcd
#
# Track frame offsets:
#	150
#	11038
#	28588
#	39463
#	54463
#	66688
#	79588
#	91738
#	116938
#	127738
#	141088
#	150988
#	158338
#	170413
#	182263
#	195088
#	209638
#	219613
#	231538
#	240913
#	257263
#	268888
#	283438
#	293863
#
# Disc length: 4067
#
# Revision: 4
# Processed by: cddbd v1.5.1PL0 Copyright (c) Steve Scherf et al.
# Submitted via: ExactAudioCopy v0.95a5
# Normalized: r3:TSWAP
#
DISCID=4f0fe118
DTITLE=Various Artist - Country Gospel
DYEAR=1900
DGENRE=Gospel
TTITLE0=Johnny Cash - Daddy Sang Bass
TTITLE1=Tennessee Ernie Ford - What a Friend We Have in Jesus
TTITLE2=Loretta Lynn - In the Sweet Bye and Bye
TTITLE3=George Jones - Amazing Grace
TTITLE4=Ernest Tubb - I Saw the Light
TTITLE5=Tennessee Ernie Ford - Precious Memories
TTITLE6=Ernest Tubb - The Wings of a Doe
TTITLE7=Wille Nelson - Whispering Hope
TTITLE8=Ferlin Husky - I'll Fly Away
TTITLE9=Ray Price - When the Roll is Called Up Yonder
TTITLE10=Marty Robbins - You Gotta Climb
TTITLE11=Jimmy Dean - Take My Hand, Precious Lord
TTITLE12=Ernest Tubb - The Great Speckled Bird
TTITLE13=Jordanaires - Blessed Assurance
TTITLE14=Patsy Cline - Just a Closer Walk with Thee
TTITLE15=Red Foley - Peace in the Valley
TTITLE16=Jimmie Rodgers - Beyond the Sunset
TTITLE17=Jim Nabors - Rock of Ages
TTITLE18=The Statler Brothers - Are You Washed in the Blood
TTITLE19=Tammy Wynette - How Great Thou Art
TTITLE20=Johnny Cash - I Saw a Man
TTITLE21=Marty Robbins - Will the Circle Be Unbroken
TTITLE22=Kitty Wells - Dust on the Bible
TTITLE23=Sonny James - Till the Last Leaf Shall Fall
EXTD=
EXTT0=
EXTT1=
EXTT2=
EXTT3=
EXTT4=
EXTT5=
EXTT6=
EXTT7=
EXTT8=
EXTT9=
EXTT10=
EXTT11=
EXTT12=
EXTT13=
EXTT14=
EXTT15=
EXTT16=
EXTT17=
EXTT18=
EXTT19=
EXTT20=
EXTT21=
EXTT22=
EXTT23=
PLAYORDER=
